<svg xmlns="http://www.w3.org/2000/svg" viewBox="0 0 129.17 130.49"><defs><style>.cls-1{fill:#fff;}.cls-1,.cls-5,.cls-6{stroke:#231f20;stroke-miterlimit:10;}.cls-2{fill:#a7a9ac;}.cls-3{fill:#bcbec0;}.cls-4{fill:#939598;}.cls-5,.cls-6{fill:none;}.cls-5{stroke-width:0.25px;}.cls-6{stroke-width:0.75px;}</style></defs><title>Asset 1</title><g id="Layer_2" data-name="Layer 2"><g id="Layer_1-2" data-name="Layer 1"><rect class="cls-1" x="0.5" y="0.67" width="72" height="100"/><polygon class="cls-1" points="128.67 129.66 72.5 100.4 72.5 0.67 128.67 16.9 128.67 129.66"/><ellipse class="cls-2" cx="42.83" cy="31.3" rx="6.13" ry="6.42"/><ellipse class="cls-3" cx="31.57" cy="50.29" rx="6.13" ry="6.42"/><ellipse class="cls-2" cx="53.71" cy="51.16" rx="6.13" ry="6.42"/><ellipse class="cls-4" cx="40.84" cy="70.41" rx="6.13" ry="6.42"/><ellipse class="cls-4" cx="22.13" cy="70.27" rx="6.13" ry="6.42"/><line class="cls-5" x1="38.85" y1="36.17" x2="34.71" y2="44.79"/><line class="cls-5" x1="27.6" y1="55.1" x2="23.04" y2="63.85"/><line class="cls-5" x1="46.28" y1="36.3" x2="50.97" y2="45.42"/><line class="cls-5" x1="35.16" y1="55.48" x2="40.01" y2="64.06"/><line class="cls-6" x1="89.75" y1="21.77" x2="114.25" y2="28.93"/><line class="cls-6" x1="79.94" y1="25.42" x2="120.11" y2="37.17"/><line class="cls-6" x1="87.78" y1="35.11" x2="112.28" y2="42.27"/><line class="cls-6" x1="87.58" y1="40.95" x2="113.51" y2="48.53"/><line class="cls-6" x1="81.23" y1="44.74" x2="121.25" y2="56.71"/><line class="cls-6" x1="84.25" y1="52.42" x2="114.75" y2="61.92"/><line class="cls-6" x1="79.4" y1="78.42" x2="119.6" y2="92.62"/><line class="cls-6" x1="82.46" y1="72.76" x2="116.54" y2="84.36"/><line class="cls-6" x1="83.37" y1="65.94" x2="119.12" y2="77.6"/><line class="cls-6" x1="84.29" y1="88.5" x2="109.46" y2="97.39"/></g></g></svg>